<?xml version="1.0" standalone="no"?>
<!DOCTYPE svg PUBLIC "-//W3C//DTD SVG 20010904//EN"
 "http://www.w3.org/TR/2001/REC-SVG-20010904/DTD/svg10.dtd">
<svg version="1.0" xmlns="http://www.w3.org/2000/svg"
 width="500.000000pt" height="500.000000pt" viewBox="0 0 500.000000 500.000000"
 preserveAspectRatio="xMidYMid meet">
<metadata>
Created by potrace 1.14, written by Peter Selinger 2001-2017
</metadata>
<g transform="translate(0.000000,500.000000) scale(0.100000,-0.100000)"
fill="#000000" stroke="none">
<path d="M2418 4655 c-2 -2 -43 -5 -93 -9 -215 -15 -483 -108 -680 -236 -373
-244 -619 -628 -684 -1067 -12 -78 -16 -268 -7 -293 9 -22 85 -474 107 -630
19 -138 28 -184 48 -233 18 -45 80 -139 121 -182 l38 -40 6 -175 c3 -96 8
-191 10 -210 3 -19 7 -69 11 -110 15 -183 72 -455 116 -555 11 -26 31 -53 99
-139 131 -163 311 -325 435 -390 l60 -31 470 0 470 0 50 24 c113 56 148 83
305 241 163 163 233 256 264 348 23 68 59 223 71 308 3 22 8 50 10 64 5 25 10
67 20 165 8 78 17 230 19 348 l3 108 44 51 c95 110 140 210 154 343 3 33 8 71
10 85 3 14 8 42 11 64 3 21 8 48 10 60 4 22 32 183 39 226 2 14 16 95 30 180
26 151 28 260 10 365 -67 382 -205 649 -463 896 -278 267 -623 410 -1024 423
-48 2 -89 2 -90 1z"/>
</g>
</svg>
