<?xml version="1.0" standalone="no"?>
<!DOCTYPE svg PUBLIC "-//W3C//DTD SVG 20010904//EN"
 "http://www.w3.org/TR/2001/REC-SVG-20010904/DTD/svg10.dtd">
<svg version="1.0" xmlns="http://www.w3.org/2000/svg"
 width="672.000000pt" height="672.000000pt" viewBox="0 0 672.000000 672.000000"
 preserveAspectRatio="xMidYMid meet">
<metadata>
Created by potrace 1.14, written by Peter Selinger 2001-2017
</metadata>
<g transform="translate(0.000000,672.000000) scale(0.100000,-0.100000)"
fill="#000000" stroke="none">
<path d="M3267 5104 c-1 -1 -135 -5 -297 -8 -294 -7 -333 -8 -485 -20 -84 -7
-99 -8 -325 -31 -135 -14 -434 -65 -530 -90 -14 -3 -29 -7 -35 -9 -5 -1 -26
-6 -45 -10 -76 -17 -281 -86 -375 -126 -22 -10 -50 -21 -62 -24 -13 -4 -23
-12 -23 -18 0 -6 -3 -8 -7 -5 -9 10 -198 -98 -266 -153 -33 -26 -155 -154
-182 -190 -47 -63 -121 -193 -153 -272 -39 -93 -39 -100 -9 -89 31 12 102 5
143 -15 66 -31 140 -139 151 -219 3 -16 8 -36 12 -45 9 -16 7 -229 -3 -437 -5
-111 -4 -133 8 -133 13 0 125 77 155 108 33 33 120 93 162 111 143 64 257 2
352 -191 25 -51 73 -149 106 -218 77 -160 92 -185 139 -234 92 -96 231 -123
302 -58 24 23 77 120 85 156 1 6 4 18 8 26 3 8 19 58 37 110 46 136 101 233
167 296 31 30 60 54 65 54 5 0 29 9 54 20 76 35 168 43 274 26 51 -9 140 -45
140 -58 0 -4 6 -8 13 -8 21 0 85 -77 116 -139 26 -51 96 -253 105 -305 9 -48
57 -135 92 -164 63 -54 189 -65 304 -27 92 30 143 101 236 320 21 50 46 101
56 114 10 13 18 29 18 35 0 20 87 102 132 124 45 23 133 40 184 36 46 -3 136
-48 170 -85 33 -37 88 -119 79 -119 -3 0 1 -13 10 -30 14 -26 55 -184 70 -265
6 -34 15 -92 18 -115 2 -8 5 -19 9 -25 3 -5 9 -30 13 -55 23 -141 86 -251 155
-268 28 -7 75 -3 78 8 2 5 10 10 17 10 24 0 83 119 99 202 2 13 12 56 20 95 9
40 18 87 21 105 35 198 82 399 108 463 6 17 12 32 12 35 4 22 43 93 80 145 54
76 101 115 192 157 63 30 76 33 174 33 93 0 111 -3 154 -25 54 -27 127 -95
150 -140 34 -65 59 -152 71 -240 3 -19 6 -44 9 -55 2 -11 4 -31 4 -44 1 -25 1
-25 35 8 35 34 75 113 82 160 7 56 13 120 19 206 14 201 59 320 152 405 31 29
76 62 100 73 49 24 50 32 13 150 -45 143 -127 282 -228 382 -96 97 -274 196
-484 271 -40 15 -78 30 -84 35 -6 5 -13 6 -16 4 -3 -3 -18 -1 -34 5 -16 6 -30
11 -31 11 -2 0 -22 7 -45 15 -41 15 -196 57 -248 68 -14 3 -56 12 -93 21 -37
8 -80 17 -95 20 -15 2 -52 9 -82 15 -30 6 -71 13 -90 16 -19 3 -60 9 -90 14
-57 10 -93 15 -170 25 -25 3 -56 7 -70 9 -14 3 -54 7 -90 10 -36 4 -87 9 -115
11 -58 6 -157 14 -235 20 -30 2 -158 7 -285 10 -328 10 -346 10 -348 9z m343
-258 c19 -3 64 -7 100 -10 36 -3 76 -8 90 -11 13 -2 42 -7 65 -10 39 -6 68
-11 113 -20 12 -3 32 -7 45 -10 12 -2 36 -7 52 -11 58 -11 208 -65 274 -98
112 -57 175 -148 164 -240 -9 -77 -41 -119 -147 -188 -19 -13 -136 -66 -136
-63 0 2 -16 -3 -35 -11 -19 -7 -51 -17 -72 -20 -21 -3 -41 -8 -44 -10 -3 -2
-21 -6 -40 -9 -19 -3 -50 -10 -69 -15 -19 -5 -53 -11 -75 -15 -23 -3 -51 -7
-63 -10 -37 -7 -203 -24 -298 -31 -172 -13 -594 -6 -694 11 -14 2 -52 6 -85
10 -33 3 -85 10 -115 15 -30 5 -68 12 -85 15 -108 18 -288 71 -358 105 -146
70 -208 142 -209 241 -1 85 63 164 179 222 47 24 188 75 226 83 10 2 26 5 35
8 9 3 32 8 51 11 19 3 37 7 40 9 3 2 26 7 51 10 25 3 56 8 70 11 24 5 60 10
145 20 22 2 81 8 130 11 50 4 91 7 92 9 5 3 568 -5 603 -9z"/>
<path d="M485 3838 c-16 -11 -41 -35 -56 -53 l-25 -33 1 -369 c1 -244 6 -393
14 -443 28 -163 66 -284 133 -415 30 -58 112 -189 133 -211 5 -6 21 -26 35
-45 35 -48 157 -170 205 -205 22 -16 42 -31 45 -34 11 -12 79 -60 84 -60 3 0
28 -13 56 -30 48 -28 208 -98 240 -105 8 -2 35 -11 59 -19 24 -9 53 -18 65
-20 12 -3 53 -12 91 -21 39 -10 79 -19 90 -21 11 -2 43 -8 70 -14 89 -19 246
-46 305 -54 60 -8 114 -16 135 -21 11 -2 47 -7 80 -10 33 -3 74 -7 90 -10 59
-8 141 -16 200 -20 33 -3 94 -7 135 -10 194 -14 311 -17 650 -17 391 0 595 7
805 27 125 12 166 17 187 20 13 2 50 6 83 10 33 3 69 8 80 10 11 2 43 7 70 10
28 3 115 17 195 32 80 14 152 27 160 28 8 1 29 5 45 8 17 4 41 10 55 13 14 3
34 7 45 9 11 3 29 7 40 9 54 11 88 21 185 53 58 20 108 41 112 47 4 6 8 7 8 3
0 -14 189 92 265 148 72 54 207 184 260 249 17 21 36 44 43 51 6 8 12 16 12
19 0 3 15 27 34 54 87 121 191 371 211 507 3 23 8 52 10 65 13 63 25 644 13
655 -2 3 -2 26 2 53 3 26 3 58 0 71 -5 24 -6 24 -37 -13 -17 -21 -34 -52 -38
-70 -4 -17 -9 -38 -11 -46 -7 -25 -13 -80 -19 -175 -3 -49 -8 -103 -11 -120
-3 -16 -7 -42 -9 -56 -15 -107 -78 -224 -159 -296 -99 -87 -192 -109 -261 -62
-33 22 -72 85 -80 126 -2 10 -4 18 -5 18 -1 0 -3 9 -5 20 -1 11 -5 36 -9 55
-3 19 -11 65 -17 102 -26 150 -83 212 -187 202 -68 -6 -121 -33 -165 -85 -35
-41 -87 -138 -87 -163 0 -7 -3 -16 -7 -20 -4 -3 -8 -14 -9 -24 -2 -9 -10 -46
-19 -82 -8 -36 -18 -78 -21 -95 -25 -138 -78 -390 -91 -435 -9 -30 -18 -62
-19 -70 -5 -30 -49 -116 -78 -155 -33 -43 -76 -88 -76 -78 0 3 -8 -1 -17 -9
-37 -31 -71 -39 -168 -41 -84 -1 -157 28 -222 89 -42 40 -118 166 -106 178 3
3 1 6 -5 6 -7 0 -12 11 -12 23 0 13 -3 27 -7 31 -4 3 -8 13 -9 20 -1 8 -10 47
-19 87 -9 41 -19 85 -21 99 -3 14 -9 44 -15 68 -5 23 -12 59 -15 79 -13 84
-56 210 -83 243 -22 27 -37 36 -65 38 -60 5 -100 -29 -146 -125 -22 -44 -40
-83 -40 -86 0 -14 -75 -166 -106 -214 -76 -119 -186 -192 -329 -218 -32 -5
-156 -6 -190 -1 -63 10 -103 21 -122 34 -13 8 -23 11 -23 8 0 -12 -91 57 -123
93 -44 51 -92 159 -132 299 -66 230 -99 275 -211 289 -32 4 -62 6 -66 5 -3 -1
-21 -4 -39 -7 -44 -8 -94 -40 -123 -78 -26 -34 -82 -166 -110 -257 -10 -30
-21 -64 -26 -75 -4 -11 -16 -40 -26 -65 -42 -104 -103 -176 -184 -217 -47 -23
-69 -28 -147 -30 -101 -2 -126 3 -223 50 -74 36 -167 122 -221 207 -34 52
-139 260 -139 274 0 12 -76 162 -98 194 -13 17 -30 32 -37 32 -8 0 -64 -40
-126 -89 -164 -131 -266 -177 -355 -159 -74 15 -126 83 -140 183 -8 61 -8 39
1 225 14 254 9 347 -19 415 -17 40 -29 42 -71 13z"/>
</g>
</svg>
